<svg width="179" height="85" viewBox="0 0 179 85" fill="none" xmlns="http://www.w3.org/2000/svg">
<g clip-path="url(#clip0_134_73)">
<path d="M58 12L71 17L74 21.5L83.5 13.5L90 8.5L98 4.5H104L113 6L123.5 15.5L127.5 21.5L135 18.5H146L151.5 19C151.5 19 159.95 20.9034 163.5 22C167.795 23.3269 172 27 172 27L175.5 40V49.5L168 62L152.5 66.5C152.5 66.5 144.946 66.1368 140 64.5C134.937 62.8246 127.5 59 127.5 59L110 62L107.5 67.5L98 78.5L83.5 82L71 75.5C71 75.5 65.5 72.5 62.75 70.5C60 68.5 56.5 64.5 56.5 64.5L35.5 65.5C35.5 65.5 27 65.5 21.75 64.75C16.5 64 9.5 60.5 9.5 60.5L3.5 51V34.5L12.5 23L24.5 18.5C24.5 18.5 28.4497 18.1095 30.5 18.5C32.5503 18.8905 35 20.5 35 20.5L44.5 13.5L58 12Z" fill="url(#paint0_radial_134_73)"/>
<path d="M58 12L71 17L74 21.5L83.5 13.5L90 8.5L98 4.5H104L113 6L123.5 15.5L127.5 21.5L135 18.5H146L151.5 19C151.5 19 159.95 20.9034 163.5 22C167.795 23.3269 172 27 172 27L175.5 40V49.5L168 62L152.5 66.5C152.5 66.5 144.946 66.1368 140 64.5C134.937 62.8246 127.5 59 127.5 59L110 62L107.5 67.5L98 78.5L83.5 82L71 75.5C71 75.5 65.5 72.5 62.75 70.5C60 68.5 56.5 64.5 56.5 64.5L35.5 65.5C35.5 65.5 27 65.5 21.75 64.75C16.5 64 9.5 60.5 9.5 60.5L3.5 51V34.5L12.5 23L24.5 18.5C24.5 18.5 28.4497 18.1095 30.5 18.5C32.5503 18.8905 35 20.5 35 20.5L44.5 13.5L58 12Z" fill="url(#paint1_radial_134_73)"/>
<path d="M30.9506 25.0534C30.9506 25.0534 36.4506 17.5539 40.4506 15.0539C45.0692 12.1673 47.507 10.7256 52.9506 10.5536C59.1531 10.3575 62.9847 11.3326 67.9506 15.0539C71.9506 18.0513 76.4506 25.0534 76.4506 25.0534M10.2595 61.1711C10.2595 61.1711 5.06741 53.4551 4.07078 48.8446C2.92005 43.5212 2.38974 40.7391 4.07255 35.5592C5.98992 29.6573 8.20568 26.3828 13.3896 22.9717C17.5651 20.2241 25.6779 18.3631 25.6779 18.3631M66.9908 57.161C66.9908 57.161 60.0309 63.3297 55.5931 64.9285C50.4691 66.7745 47.7818 67.6687 42.4246 66.6871C36.3207 65.5687 32.7815 63.8064 28.7135 59.1202C25.4368 55.3456 22.5173 47.551 22.5173 47.551M110.902 59.5511C110.902 59.5511 107.876 68.3451 104.798 71.9195C101.244 76.0467 99.3438 78.1469 94.1964 79.9267C88.3316 81.9546 84.3832 82.1606 78.5366 80.0807C73.8273 78.4054 67.452 73.0542 67.452 73.0542M141.902 38.5511C141.902 38.5511 138.876 47.3451 135.798 50.9195C132.244 55.0467 130.344 57.1469 125.196 58.9267C119.332 60.9546 115.383 61.1606 109.537 59.0807C104.827 57.4054 98.452 52.0542 98.452 52.0542M171.747 26.551C171.747 26.551 175.59 35.0202 175.809 39.7321C176.062 45.1726 176.124 48.0041 173.607 52.8338C170.739 58.3367 168.011 61.199 162.334 63.7045C157.761 65.7227 149.452 66.2144 149.452 66.2144M79.4489 17.0722C79.4489 17.0722 85.094 9.68118 89.1419 7.2596C93.8158 4.46356 96.2813 3.06964 101.727 3.0037C107.932 2.92858 111.744 3.9781 116.637 7.79542C120.578 10.8702 124.94 17.9587 124.94 17.9587M119.451 27.6987C119.451 27.6987 126.505 21.6372 130.967 20.1066C136.118 18.3392 138.819 17.4862 144.16 18.5497C150.247 19.7614 153.758 21.5777 157.754 26.3256C160.973 30.15 163.773 37.9884 163.773 37.9884" stroke="white" stroke-width="5"/>
</g>
<defs>
<radialGradient id="paint0_radial_134_73" cx="0" cy="0" r="1" gradientUnits="userSpaceOnUse" gradientTransform="translate(89.5 43.25) rotate(90) scale(38.75 86)">
<stop stop-color="white"/>
<stop offset="1" stop-color="white" stop-opacity="0"/>
</radialGradient>
<radialGradient id="paint1_radial_134_73" cx="0" cy="0" r="1" gradientUnits="userSpaceOnUse" gradientTransform="translate(89.5 43.25) rotate(90) scale(38.75 86)">
<stop stop-color="white"/>
<stop offset="1" stop-color="white" stop-opacity="0"/>
</radialGradient>
<clipPath id="clip0_134_73">
<rect width="179" height="85" fill="white"/>
</clipPath>
</defs>
</svg>
