<svg width="289" height="452" viewBox="0 0 289 452" fill="none" xmlns="http://www.w3.org/2000/svg">
<path d="M70.9643 345.902C70.9324 345.895 70.9227 345.883 70.9184 345.877C70.9114 345.868 70.9036 345.85 70.903 345.826C70.9024 345.802 70.9094 345.782 70.9177 345.769C70.9236 345.76 70.935 345.747 70.9673 345.737C90.5577 339.556 108.848 328.426 123.852 312.406C170.719 262.368 167.783 183.573 117.307 136.414C102.092 122.199 84.2933 112.48 65.5671 107.208C65.5345 107.199 65.5226 107.186 65.5164 107.177C65.5077 107.165 65.5002 107.145 65.5 107.121C65.4998 107.097 65.507 107.079 65.5137 107.07C65.5177 107.064 65.5269 107.052 65.5587 107.043C105.84 95.8187 151.003 105.347 183.954 136.132C234.032 182.92 236.937 261.081 190.452 310.711C158.989 344.304 112.959 356.219 70.9643 345.902Z" fill="#FCE300" stroke="black"/>
</svg>
