<svg width="500" height="500" viewBox="0 0 500 500" fill="none" xmlns="http://www.w3.org/2000/svg">
<path d="M243.824 184.991L246.893 39H254.563V180.9L250.983 184.991H243.824Z" fill="#FCE300"/>
<path d="M327.175 61.7551L318.737 57.6643L270.67 184.991L277.062 189.081L283.71 184.991L327.175 71.7264V61.7551Z" fill="#FCE300"/>
<path d="M183.229 57.6643H190.9L229.507 184.991L224.521 187.036L218.172 184.5L183.229 67.1243V57.6643Z" fill="#FCE300"/>
<path d="M128.259 100.873L134.651 99.0837L202.916 187.803L205 196.5L201 200L193.968 195.473L155.872 145.617L128.259 100.873Z" fill="#FCE300"/>
<path d="M186.553 202.376L92.7205 137.691L89.6524 141.781V145.617L177.605 210.814L186.553 212.5L189 209.5L186.553 202.376Z" fill="#FCE300"/>
<path d="M72.0108 197.519L65.6189 199.308L68.687 207.234L177.605 228.5L179 223L173.769 216.5L72.0108 197.519Z" fill="#FCE300"/>
<path d="M55.3919 243.029L49 248.142L55.3919 255.557L173.769 251.722L180 249.5V245.5L179 242L172.235 238.938L55.3919 243.029Z" fill="#FCE300"/>
<path d="M63.0621 291.607L57.9486 295.954V301.067L68.687 303.112L136.952 287.772L173.769 279.846L192.689 271.544L192.178 268.852H169.167L63.0621 291.607Z" fill="#FCE300"/>
<path d="M201.638 289.306L194.479 287.772L90.4194 343.253L87.6069 347.856V351.435L94.7659 354.247L201.638 297.743L204.195 293.908L201.638 289.306Z" fill="#FCE300"/>
<path d="M215.189 304.646L209.564 307.459L130.56 404.36V410.496L134.907 412.286L140.02 410.496L220.558 311.55V307.459L215.189 304.646Z" fill="#FCE300"/>
<path d="M241.012 317.43H233.597L230.529 321.265L223.115 355.782L215.189 387.23L205.729 449.359L210.331 453.449H214.678L217.746 449.359L241.012 320.243V317.43Z" fill="#FCE300"/>
<path d="M264.023 315.896L259.421 320.243L264.023 352.713L270.415 391.832L274.761 423.791L277.574 442.967L279.108 458.563L283.454 461.631L285.5 460.097L288.568 461.631V441.433L271.949 322.799L270.67 317.43L266.58 315.896H264.023Z" fill="#FCE300"/>
<path d="M287.5 306L283 309V314L293.681 334.816L309.533 364.986L321.805 391.832L334.589 417.911L340.981 432.484L345.839 433.762L349.418 429.672L347.884 420.212L342.004 406.405L292.5 307.459L287.5 306Z" fill="#FCE300"/>
<path d="M305.698 299.022L300.5 291L305.698 289L315 292L397.485 381.605L392.116 385.184L305.698 299.022Z" fill="#FCE300"/>
<path d="M318 274.5L315 279L319.5 286L340.214 299.022L418.962 337.117L426.121 339.163L429.7 334.816L428.422 331.237L323.084 277L318 274.5Z" fill="#FCE300"/>
<path d="M327.5 270L318 267.5L319 262L326.663 259.5L439.5 268.198L443.5 271.5L442.228 277L437.5 279.5L356.5 273L327.5 270Z" fill="#FCE300"/>
<path d="M318 247.5H330.5L344.305 245.841L444.785 240.728L450.41 237.148V231.523L442.228 228.711L342.004 233.313L326.663 236.5L315 240.5L318 247.5Z" fill="#FCE300"/>
<path d="M305.698 218.228L306.976 213.882L315.669 210.047L382.912 186.525L423.053 173.741L429.7 177.065V181.155L425.865 185.502L393.139 195.985L323.084 218.995L312.345 223.086L305.698 218.228Z" fill="#FCE300"/>
<path d="M303.908 201.354L296.238 204.166L291.38 200.075V198.03L296.238 192.916L327.686 161.98L357.6 135.134L384.702 111.1L391.093 109.822L395.184 112.379V118.771L386.491 126.185L361.946 147.151L331.265 175.275L303.908 201.354Z" fill="#FCE300"/>
<path d="M243.824 184.991L246.893 39H254.563V180.9L250.983 184.991H243.824Z" stroke="black"/>
<path d="M327.175 61.7551L318.737 57.6643L270.67 184.991L277.062 189.081L283.71 184.991L327.175 71.7264V61.7551Z" stroke="black"/>
<path d="M183.229 57.6643H190.9L229.507 184.991L224.521 187.036L218.172 184.5L183.229 67.1243V57.6643Z" stroke="black"/>
<path d="M128.259 100.873L134.651 99.0837L202.916 187.803L205 196.5L201 200L193.968 195.473L155.872 145.617L128.259 100.873Z" stroke="black"/>
<path d="M186.553 202.376L92.7205 137.691L89.6524 141.781V145.617L177.605 210.814L186.553 212.5L189 209.5L186.553 202.376Z" stroke="black"/>
<path d="M72.0108 197.519L65.6189 199.308L68.687 207.234L177.605 228.5L179 223L173.769 216.5L72.0108 197.519Z" stroke="black"/>
<path d="M55.3919 243.029L49 248.142L55.3919 255.557L173.769 251.722L180 249.5V245.5L179 242L172.235 238.938L55.3919 243.029Z" stroke="black"/>
<path d="M63.0621 291.607L57.9486 295.954V301.067L68.687 303.112L136.952 287.772L173.769 279.846L192.689 271.544L192.178 268.852H169.167L63.0621 291.607Z" stroke="black"/>
<path d="M201.638 289.306L194.479 287.772L90.4194 343.253L87.6069 347.856V351.435L94.7659 354.247L201.638 297.743L204.195 293.908L201.638 289.306Z" stroke="black"/>
<path d="M215.189 304.646L209.564 307.459L130.56 404.36V410.496L134.907 412.286L140.02 410.496L220.558 311.55V307.459L215.189 304.646Z" stroke="black"/>
<path d="M241.012 317.43H233.597L230.529 321.265L223.115 355.782L215.189 387.23L205.729 449.359L210.331 453.449H214.678L217.746 449.359L241.012 320.243V317.43Z" stroke="black"/>
<path d="M264.023 315.896L259.421 320.243L264.023 352.713L270.415 391.832L274.761 423.791L277.574 442.967L279.108 458.563L283.454 461.631L285.5 460.097L288.568 461.631V441.433L271.949 322.799L270.67 317.43L266.58 315.896H264.023Z" stroke="black"/>
<path d="M287.5 306L283 309V314L293.681 334.816L309.533 364.986L321.805 391.832L334.589 417.911L340.981 432.484L345.839 433.762L349.418 429.672L347.884 420.212L342.004 406.405L292.5 307.459L287.5 306Z" stroke="black"/>
<path d="M305.698 299.022L300.5 291L305.698 289L315 292L397.485 381.605L392.116 385.184L305.698 299.022Z" stroke="black"/>
<path d="M318 274.5L315 279L319.5 286L340.214 299.022L418.962 337.117L426.121 339.163L429.7 334.816L428.422 331.237L323.084 277L318 274.5Z" stroke="black"/>
<path d="M327.5 270L318 267.5L319 262L326.663 259.5L439.5 268.198L443.5 271.5L442.228 277L437.5 279.5L356.5 273L327.5 270Z" stroke="black"/>
<path d="M318 247.5H330.5L344.305 245.841L444.785 240.728L450.41 237.148V231.523L442.228 228.711L342.004 233.313L326.663 236.5L315 240.5L318 247.5Z" stroke="black"/>
<path d="M305.698 218.228L306.976 213.882L315.669 210.047L382.912 186.525L423.053 173.741L429.7 177.065V181.155L425.865 185.502L393.139 195.985L323.084 218.995L312.345 223.086L305.698 218.228Z" stroke="black"/>
<path d="M303.908 201.354L296.238 204.166L291.38 200.075V198.03L296.238 192.916L327.686 161.98L357.6 135.134L384.702 111.1L391.093 109.822L395.184 112.379V118.771L386.491 126.185L361.946 147.151L331.265 175.275L303.908 201.354Z" stroke="black"/>
<circle cx="247" cy="250" r="59.5" fill="#FCE300" stroke="black"/>
</svg>
